<svg t="1684140193266" class="icon" viewBox="0 0 1024 1024" version="1.1" xmlns="http://www.w3.org/2000/svg" p-id="2368" width="200" height="200">
  <path d="M573.056 511.936a30.016 30.016 0 0 0 30.016-30.016V307.264a30.016 30.016 0 0 0-30.016-30.016H450.944a30.016 30.016 0 0 0-30.016 30.016V481.92a30.016 30.016 0 0 0 30.016 30.016h122.112z" fill="#1296db" p-id="2369"></path>
  <path d="M512 938.656c-235.648 0-426.656-191.008-426.656-426.656S276.352 85.344 512 85.344s426.656 191.008 426.656 426.656-191.008 426.656-426.656 426.656z m212.48-533.504c15.36 0 28.16-12.288 28.16-28.16s-12.288-28.16-28.16-28.16h-48.64v-43.008c0-15.36-12.288-28.16-28.16-28.16s-28.16 12.288-28.16 28.16v43.008h-96.768v-43.008c0-15.36-12.288-28.16-28.16-28.16s-28.16 12.288-28.16 28.16v43.008h-96.768v-43.008c0-15.36-12.288-28.16-28.16-28.16s-28.16 12.288-28.16 28.16v43.008h-48.64c-15.36 0-28.16 12.288-28.16 28.16s12.288 28.16 28.16 28.16h48.64v96.768h-48.64c-15.36 0-28.16 12.288-28.16 28.16s12.288 28.16 28.16 28.16h48.64v96.768h-48.64c-15.36 0-28.16 12.288-28.16 28.16s12.288 28.16 28.16 28.16h48.64v43.008c0 15.36 12.288 28.16 28.16 28.16s28.16-12.288 28.16-28.16v-43.008h96.768v43.008c0 15.36 12.288 28.16 28.16 28.16s28.16-12.288 28.16-28.16v-43.008h96.768v43.008c0 15.36 12.288 28.16 28.16 28.16s28.16-12.288 28.16-28.16v-43.008h48.64c15.36 0 28.16-12.288 28.16-28.16s-12.288-28.16-28.16-28.16h-48.64v-96.768h48.64c15.36 0 28.16-12.288 28.16-28.16s-12.288-28.16-28.16-28.16h-48.64v-96.768h48.64z m-105.984 249.856h-96.768v-96.768h96.768v96.768z m0-153.088h-96.768v-96.768h96.768v96.768z m-153.088 153.088h-96.768v-96.768h96.768v96.768z m0-153.088h-96.768v-96.768h96.768v96.768z" fill="#1296db" p-id="2370"></path>
</svg>
