<svg t="1590571345742" class="icon" viewBox="0 0 1024 1024" version="1.1" xmlns="http://www.w3.org/2000/svg" p-id="1610" width="200" height="200">
  <path d="M512 64C264.6 64 64 264.6 64 512s200.6 448 448 448 448-200.6 448-448S759.4 64 512 64z m227.1 309.7l-59.4 59.4c-3.1 3.1-8.2 3.1-11.3 0l-11.3-11.3c-3.1-3.1-3.1-8.2 0-11.3l59.4-59.4c3.1-3.1 8.2-3.1 11.3 0l11.3 11.3c3.1 3.1 3.1 8.2 0 11.3z m-453.7 93.9l29.4-29.4c12.5-12.5 32.8-12.5 45.3 0l235.2 235.2c12.5 12.5 12.5 32.8 0 45.3l-29.4 29.4c-12.5 12.5-32.8 12.5-45.3 0L285.4 512.9c-12.5-12.5-12.5-32.8 0-45.3z m71.1-45.3l-11.3 11.3c-3.1 3.1-8.2 3.1-11.3 0l-28.3-28.3c-3.1-3.1-3.1-8.2 0-11.3l11.3-11.3c3.1-3.1 8.2-3.1 11.3 0l28.3 28.3c3.1 3.1 3.1 8.2 0 11.3z m115.8-56.9c-48.5-48.5-127.3-48.5-175.8 0l-28.3 28.3c-48.5 48.5-48.5 127.3 0 175.8l235.2 235.2c48.5 48.5 127.3 48.5 175.8 0l28.3-28.3c48.5-48.5 48.5-127.3 0-175.8L472.3 365.4z" p-id="1611"></path>
</svg>
