<svg t="1590571345742" class="icon" viewBox="0 0 1024 1024" version="1.1" xmlns="http://www.w3.org/2000/svg" p-id="1610" width="200" height="200">
  <path d="M512 64C264.6 64 64 264.6 64 512s200.6 448 448 448 448-200.6 448-448S759.4 64 512 64z m-52.7 664.5h-67.5c-3.4 0-6.2-2.8-6.2-6.2v-67.5c0-3.4 2.8-6.2 6.2-6.2h67.5c3.4 0 6.2 2.8 6.2 6.2v67.5c0 3.4-2.8 6.2-6.2 6.2z m0-117.8h-67.5c-3.4 0-6.2-2.8-6.2-6.2v-67.5c0-3.4 2.8-6.2 6.2-6.2h67.5c3.4 0 6.2 2.8 6.2 6.2v67.5c0 3.4-2.8 6.2-6.2 6.2z m0-117.7h-67.5c-3.4 0-6.2-2.8-6.2-6.2v-67.5c0-3.4 2.8-6.2 6.2-6.2h67.5c3.4 0 6.2 2.8 6.2 6.2v67.5c0 3.4-2.8 6.2-6.2 6.2z m118.7 235.5h-67.5c-3.4 0-6.2-2.8-6.2-6.2v-67.5c0-3.4 2.8-6.2 6.2-6.2h67.5c3.4 0 6.2 2.8 6.2 6.2v67.5c0 3.4-2.8 6.2-6.2 6.2z m0-117.8h-67.5c-3.4 0-6.2-2.8-6.2-6.2v-67.5c0-3.4 2.8-6.2 6.2-6.2h67.5c3.4 0 6.2 2.8 6.2 6.2v67.5c0 3.4-2.8 6.2-6.2 6.2z m0-117.7h-67.5c-3.4 0-6.2-2.8-6.2-6.2v-67.5c0-3.4 2.8-6.2 6.2-6.2h67.5c3.4 0 6.2 2.8 6.2 6.2v67.5c0 3.4-2.8 6.2-6.2 6.2z m118.6 235.5h-67.5c-3.4 0-6.2-2.8-6.2-6.2v-67.5c0-3.4 2.8-6.2 6.2-6.2h67.5c3.4 0 6.2 2.8 6.2 6.2v67.5c0 3.4-2.8 6.2-6.2 6.2z m0-117.8h-67.5c-3.4 0-6.2-2.8-6.2-6.2v-67.5c0-3.4 2.8-6.2 6.2-6.2h67.5c3.4 0 6.2 2.8 6.2 6.2v67.5c0 3.4-2.8 6.2-6.2 6.2z m0-117.7h-67.5c-3.4 0-6.2-2.8-6.2-6.2v-67.5c0-3.4 2.8-6.2 6.2-6.2h67.5c3.4 0 6.2 2.8 6.2 6.2v67.5c0 3.4-2.8 6.2-6.2 6.2z" p-id="1611"></path>
</svg>
